<?xml version="1.0" encoding="UTF-8"?>
<!DOCTYPE svg PUBLIC "-//W3C//DTD SVG 1.1//EN" "http://www.w3.org/Graphics/SVG/1.1/DTD/svg11.dtd">
<!-- Creator: CorelDRAW -->
<svg xmlns="http://www.w3.org/2000/svg" xml:space="preserve" width="512px" height="512px" version="1.1" style="shape-rendering:geometricPrecision; text-rendering:geometricPrecision; image-rendering:optimizeQuality; fill-rule:evenodd; clip-rule:evenodd"
viewBox="0 0 512 512"
 xmlns:xlink="http://www.w3.org/1999/xlink">
 <defs>
  <style type="text/css">
   <![CDATA[
    .fil0 {fill:black}
   ]]>
  </style>
 </defs>
 <g id="Layer_x0020_1">
  <metadata id="CorelCorpID_0Corel-Layer"/>
  <g id="_242947104">
   <g>
    <g id="_242939160">
     <path class="fil0" d="M467 468l-28 0c-2,0 -4,-1 -5,-3 -1,-2 -2,-4 -1,-6 1,-4 1,-7 1,-11 0,-21 -17,-39 -39,-39 -21,0 -39,18 -39,39 0,4 1,7 1,11 1,2 1,4 -1,6 -1,2 -3,3 -5,3l-190 0c-2,0 -4,-1 -5,-3 -2,-2 -2,-4 -1,-6 0,-4 1,-7 1,-11 0,-21 -18,-39 -39,-39 -22,0 -39,18 -39,39 0,4 0,7 1,11 1,2 0,4 -1,6 -1,2 -3,3 -5,3l-22 0c-14,0 -25,-10 -28,-27 -8,-38 -6,-76 7,-112 0,0 0,0 0,0l28 -64c1,-2 3,-4 6,-4l234 0c2,0 4,1 5,2l58 60 66 0c37,0 67,30 67,67l0 51c0,15 -12,27 -27,27zm-19 -14l19 0c7,0 13,-6 13,-13l0 -51c0,-30 -24,-53 -53,-53l-69 0c-2,0 -4,-1 -5,-2l-58 -60 -226 0 -26 59c-12,34 -14,69 -6,104 0,4 4,16 14,16l13 0c0,-2 0,-4 0,-6 0,-29 24,-53 53,-53 29,0 53,24 53,53 0,2 0,4 0,6l172 0c0,-2 0,-4 0,-6 0,-29 24,-53 53,-53 29,0 53,24 53,53 0,2 0,4 0,6z"/>
    </g>
    <g id="_242945640">
     <path class="fil0" d="M358 337l-217 0c-4,0 -7,-3 -7,-7 0,-4 3,-7 7,-7l217 0c3,0 7,3 7,7 0,4 -4,7 -7,7z"/>
    </g>
    <g id="_242945280">
     <path class="fil0" d="M117 501c-29,0 -53,-23 -53,-53 0,-29 24,-53 53,-53 29,0 53,24 53,53 0,30 -24,53 -53,53zm0 -92c-22,0 -39,18 -39,39 0,22 17,39 39,39 21,0 39,-17 39,-39 0,-21 -18,-39 -39,-39z"/>
    </g>
    <g id="_242939040">
     <path class="fil0" d="M117 476c-15,0 -28,-12 -28,-28 0,-15 13,-28 28,-28 15,0 28,13 28,28 0,16 -13,28 -28,28zm0 -42c-8,0 -14,7 -14,14 0,8 6,14 14,14 8,0 14,-6 14,-14 0,-7 -6,-14 -14,-14z"/>
    </g>
    <g id="_242941800">
     <path class="fil0" d="M395 501c-29,0 -53,-23 -53,-53 0,-29 24,-53 53,-53 29,0 53,24 53,53 0,30 -24,53 -53,53zm0 -92c-21,0 -39,18 -39,39 0,22 18,39 39,39 22,0 39,-17 39,-39 0,-21 -17,-39 -39,-39z"/>
    </g>
    <g id="_242946072">
     <path class="fil0" d="M395 476c-15,0 -28,-12 -28,-28 0,-15 13,-28 28,-28 15,0 28,13 28,28 0,16 -13,28 -28,28zm0 -42c-8,0 -14,7 -14,14 0,8 6,14 14,14 8,0 14,-6 14,-14 0,-7 -6,-14 -14,-14z"/>
    </g>
    <g id="_242949624">
     <path class="fil0" d="M67 372l-37 0c-4,0 -7,-3 -7,-7 0,-4 3,-7 7,-7l37 0c3,0 7,3 7,7 0,4 -4,7 -7,7z"/>
    </g>
    <g id="_242934480">
     <path class="fil0" d="M64 275l-24 0c-3,0 -7,-3 -7,-7 0,-4 4,-7 7,-7l24 0c4,0 7,3 7,7 0,4 -3,7 -7,7z"/>
    </g>
    <g id="_242934768">
     <path class="fil0" d="M487 405l-23 0c-5,0 -10,-2 -14,-6 -6,-7 -9,-18 -8,-25 0,-4 4,-7 7,-6 4,0 7,3 7,7 0,4 1,11 5,14 1,2 2,2 3,2l23 0c4,0 7,3 7,7 0,4 -3,7 -7,7z"/>
    </g>
   </g>
   <g id="_242945040">
    <path class="fil0" d="M455 501l-398 0c-4,0 -7,-3 -7,-7 0,-3 3,-7 7,-7l398 0c4,0 7,4 7,7 0,4 -3,7 -7,7z"/>
   </g>
   <g id="_242945160">
    <path class="fil0" d="M479 77l-446 0c-18,0 -33,-15 -33,-33 0,-19 15,-33 33,-33l446 0c18,0 33,14 33,33 0,18 -15,33 -33,33zm-446 -52c-10,0 -19,8 -19,19 0,10 9,19 19,19l446 0c10,0 19,-9 19,-19 0,-11 -9,-19 -19,-19l-446 0z"/>
   </g>
   <g id="_242944752">
    <path class="fil0" d="M59 128c-4,0 -7,-3 -7,-7l0 -30c0,-4 3,-7 7,-7 4,0 7,3 7,7l0 30c0,4 -3,7 -7,7z"/>
   </g>
   <g id="_242944680">
    <path class="fil0" d="M138 226c-4,0 -7,-3 -7,-7l0 -101c0,-4 3,-7 7,-7 3,0 7,3 7,7l0 101c0,4 -4,7 -7,7z"/>
   </g>
   <g id="_242943816">
    <path class="fil0" d="M217 128c-4,0 -7,-3 -7,-7l0 -30c0,-4 3,-7 7,-7 3,0 7,3 7,7l0 30c0,4 -4,7 -7,7z"/>
   </g>
   <g id="_242947224">
    <path class="fil0" d="M295 128c-3,0 -7,-3 -7,-7l0 -30c0,-4 4,-7 7,-7 4,0 7,3 7,7l0 30c0,4 -3,7 -7,7z"/>
   </g>
   <g id="_242941896">
    <path class="fil0" d="M374 212c-3,0 -7,-4 -7,-7l0 -114c0,-4 4,-7 7,-7 4,0 7,3 7,7l0 114c0,3 -3,7 -7,7z"/>
   </g>
   <g id="_242937024">
    <path class="fil0" d="M453 128c-4,0 -7,-3 -7,-7l0 -30c0,-4 3,-7 7,-7 4,0 7,3 7,7l0 30c0,4 -3,7 -7,7z"/>
   </g>
   <g id="_242946216">
    <path class="fil0" d="M217 204c-4,0 -7,-3 -7,-7l0 -30c0,-4 3,-7 7,-7 3,0 7,3 7,7l0 30c0,4 -4,7 -7,7z"/>
   </g>
   <g id="_242949336">
    <path class="fil0" d="M295 221c-3,0 -7,-3 -7,-7l0 -65c0,-4 4,-7 7,-7 4,0 7,3 7,7l0 65c0,4 -3,7 -7,7z"/>
   </g>
   <g id="_242941560">
    <path class="fil0" d="M453 301c-4,0 -7,-3 -7,-7l0 -127c0,-4 3,-7 7,-7 4,0 7,3 7,7l0 127c0,4 -3,7 -7,7z"/>
   </g>
   <g id="_242941440">
    <path class="fil0" d="M59 248c-4,0 -7,-3 -7,-7l0 -74c0,-4 3,-7 7,-7 4,0 7,3 7,7l0 74c0,4 -3,7 -7,7z"/>
   </g>
  </g>
 </g>
</svg>
